<svg width="190" height="190" viewBox="0 0 190 190" fill="none" xmlns="http://www.w3.org/2000/svg">
<g filter="url(#filter0_d_5046_50132)">
<mask id="mask0_5046_50132" style="mask-type:alpha" maskUnits="userSpaceOnUse" x="5" y="1" width="90" height="113">
<path d="M72.3804 51.5468C72.3804 60.851 79.9234 68.3958 89.2254 68.3958C92.3282 68.3958 94.8415 70.9097 94.8415 74.01V90.8589H77.9964C74.8937 90.8589 72.3804 93.3728 72.3804 96.4763C72.3804 105.78 64.8405 113.325 55.5353 113.325C46.2301 113.325 38.6902 105.78 38.6902 96.4763C38.6902 93.3728 36.1769 90.8589 33.0773 90.8589H5V23.4631C5 11.0555 15.0563 1 27.4612 1H94.8415V29.0805C94.8415 32.1809 92.3282 34.6979 89.2254 34.6979C79.9234 34.6979 72.3804 42.2395 72.3804 51.5468Z" fill="black"/>
</mask>
<g mask="url(#mask0_5046_50132)">
<rect x="3.8418" y="-0.158203" width="181" height="181" fill="url(#paint0_linear_5046_50132)"/>
</g>
<path d="M72.3804 51.5468C72.3804 60.851 79.9234 68.3958 89.2254 68.3958C92.3282 68.3958 94.8415 70.9097 94.8415 74.01V90.8589H77.9964C74.8937 90.8589 72.3804 93.3728 72.3804 96.4763C72.3804 105.78 64.8405 113.325 55.5353 113.325C46.2301 113.325 38.6902 105.78 38.6902 96.4763C38.6902 93.3728 36.1769 90.8589 33.0773 90.8589H5V23.4631C5 11.0555 15.0563 1 27.4612 1H94.8415V29.0805C94.8415 32.1809 92.3282 34.6979 89.2254 34.6979C79.9234 34.6979 72.3804 42.2395 72.3804 51.5468Z" fill="white" fill-opacity="0.5" stroke="#E1C2FF" stroke-width="2" stroke-linecap="round" stroke-linejoin="round"/>
<mask id="mask1_5046_50132" style="mask-type:alpha" maskUnits="userSpaceOnUse" x="4" y="90" width="115" height="92">
<path d="M55.5353 113.466C64.8373 113.466 72.3804 105.922 72.3804 96.6174C72.3804 93.5139 74.8936 91 77.9933 91H94.8384V107.849C94.8384 110.952 97.3517 113.466 100.454 113.466C109.756 113.466 117.3 121.008 117.3 130.315C117.3 139.623 109.756 147.164 100.454 147.164C97.3517 147.164 94.8384 149.678 94.8384 152.778V180.862H27.458C15.0532 180.862 5 170.803 5 158.396V91H33.0741C36.1737 91 38.6902 93.5139 38.6902 96.6174C38.6902 105.922 46.2301 113.466 55.5353 113.466Z" fill="black" stroke="#473F4E" stroke-width="2" stroke-linecap="round" stroke-linejoin="round"/>
</mask>
<g mask="url(#mask1_5046_50132)">
<rect x="3.8418" y="0.0205078" width="182" height="182" fill="url(#paint1_linear_5046_50132)"/>
</g>
<path d="M55.5353 113.466C64.8373 113.466 72.3804 105.922 72.3804 96.6174C72.3804 93.5139 74.8936 91 77.9933 91H94.8384V107.849C94.8384 110.952 97.3517 113.466 100.454 113.466C109.756 113.466 117.3 121.008 117.3 130.315C117.3 139.623 109.756 147.164 100.454 147.164C97.3517 147.164 94.8384 149.678 94.8384 152.778V180.862H27.458C15.0532 180.862 5 170.803 5 158.396V91H33.0741C36.1737 91 38.6902 93.5139 38.6902 96.6174C38.6902 105.922 46.2301 113.466 55.5353 113.466Z" fill="white" fill-opacity="0.5" stroke="#E1C2FF" stroke-width="2" stroke-linecap="round" stroke-linejoin="round"/>
<mask id="mask2_5046_50132" style="mask-type:alpha" maskUnits="userSpaceOnUse" x="94" y="68" width="91" height="113">
<path d="M117.261 130.318C117.261 121.014 109.718 113.47 100.416 113.47C97.3131 113.47 94.7998 110.956 94.7998 107.855V91.0064H111.645C114.748 91.0064 117.261 88.4925 117.261 85.389C117.261 76.0848 124.801 68.54 134.106 68.54C143.411 68.54 150.951 76.0848 150.951 85.389C150.951 88.4925 153.464 91.0064 156.564 91.0064H184.641V158.402C184.641 170.81 174.585 180.865 162.18 180.865H94.7998V152.785C94.7998 149.684 97.3131 147.167 100.416 147.167C109.718 147.167 117.261 139.626 117.261 130.318Z" fill="black"/>
</mask>
<g mask="url(#mask2_5046_50132)">
<rect x="3.7998" y="0.0234375" width="182" height="182" fill="url(#paint2_linear_5046_50132)"/>
</g>
<path d="M117.261 130.318C117.261 121.014 109.718 113.47 100.416 113.47C97.3131 113.47 94.7998 110.956 94.7998 107.855V91.0064H111.645C114.748 91.0064 117.261 88.4925 117.261 85.389C117.261 76.0848 124.801 68.54 134.106 68.54C143.411 68.54 150.951 76.0848 150.951 85.389C150.951 88.4925 153.464 91.0064 156.564 91.0064H184.641V158.402C184.641 170.81 174.585 180.865 162.18 180.865H94.7998V152.785C94.7998 149.684 97.3131 147.167 100.416 147.167C109.718 147.167 117.261 139.626 117.261 130.318Z" fill="white" fill-opacity="0.5" stroke="#E1C2FF" stroke-width="2" stroke-linecap="round" stroke-linejoin="round"/>
<mask id="mask3_5046_50132" style="mask-type:alpha" maskUnits="userSpaceOnUse" x="72" y="1" width="113" height="90">
<path d="M134.114 68.3958C124.812 68.3958 117.269 75.9406 117.269 85.2447C117.269 88.3482 114.755 90.8621 111.656 90.8621H94.8108V74.0132C94.8108 70.9097 92.2975 68.3958 89.1947 68.3958C79.8927 68.3958 72.3496 60.8542 72.3496 51.5468C72.3496 42.2395 79.8927 34.6979 89.1947 34.6979C92.2975 34.6979 94.8108 32.184 94.8108 29.0837V1H162.191C174.596 1 184.649 11.0586 184.649 23.4663V90.8621H156.575C153.475 90.8621 150.959 88.3482 150.959 85.2447C150.959 75.9406 143.419 68.3958 134.114 68.3958Z" fill="black"/>
</mask>
<g mask="url(#mask3_5046_50132)">
<rect x="3.80762" y="-0.158203" width="182" height="182" fill="url(#paint3_linear_5046_50132)"/>
</g>
<path d="M134.114 68.3958C124.812 68.3958 117.269 75.9406 117.269 85.2447C117.269 88.3482 114.755 90.8621 111.656 90.8621H94.8108V74.0132C94.8108 70.9097 92.2975 68.3958 89.1947 68.3958C79.8927 68.3958 72.3496 60.8542 72.3496 51.5468C72.3496 42.2395 79.8927 34.6979 89.1947 34.6979C92.2975 34.6979 94.8108 32.184 94.8108 29.0837V1H162.191C174.596 1 184.649 11.0586 184.649 23.4663V90.8621H156.575C153.475 90.8621 150.959 88.3482 150.959 85.2447C150.959 75.9406 143.419 68.3958 134.114 68.3958Z" fill="white" fill-opacity="0.5" stroke="#E1C2FF" stroke-width="2" stroke-linecap="round" stroke-linejoin="round"/>
</g>
<defs>
<filter id="filter0_d_5046_50132" x="0" y="0" width="189.649" height="189.865" filterUnits="userSpaceOnUse" color-interpolation-filters="sRGB">
<feFlood flood-opacity="0" result="BackgroundImageFix"/>
<feColorMatrix in="SourceAlpha" type="matrix" values="0 0 0 0 0 0 0 0 0 0 0 0 0 0 0 0 0 0 127 0" result="hardAlpha"/>
<feOffset dy="4"/>
<feGaussianBlur stdDeviation="2"/>
<feComposite in2="hardAlpha" operator="out"/>
<feColorMatrix type="matrix" values="0 0 0 0 0 0 0 0 0 0 0 0 0 0 0 0 0 0 0.25 0"/>
<feBlend mode="normal" in2="BackgroundImageFix" result="effect1_dropShadow_5046_50132"/>
<feBlend mode="normal" in="SourceGraphic" in2="effect1_dropShadow_5046_50132" result="shape"/>
</filter>
<linearGradient id="paint0_linear_5046_50132" x1="24.5814" y1="169.529" x2="153.519" y2="10.6408" gradientUnits="userSpaceOnUse">
<stop stop-color="#FFC24F"/>
<stop offset="0.2954" stop-color="#FF3183"/>
<stop offset="0.65" stop-color="#8559F3"/>
<stop offset="0.7235" stop-color="#657BEA"/>
<stop offset="0.8514" stop-color="#34B0DC"/>
<stop offset="0.9475" stop-color="#15D1D3"/>
<stop offset="1" stop-color="#09DDD0"/>
</linearGradient>
<linearGradient id="paint1_linear_5046_50132" x1="24.696" y1="170.646" x2="154.346" y2="10.8792" gradientUnits="userSpaceOnUse">
<stop stop-color="#FFC24F"/>
<stop offset="0.2954" stop-color="#FF3183"/>
<stop offset="0.65" stop-color="#8559F3"/>
<stop offset="0.7235" stop-color="#657BEA"/>
<stop offset="0.8514" stop-color="#34B0DC"/>
<stop offset="0.9475" stop-color="#15D1D3"/>
<stop offset="1" stop-color="#09DDD0"/>
</linearGradient>
<linearGradient id="paint2_linear_5046_50132" x1="24.654" y1="170.648" x2="154.304" y2="10.8821" gradientUnits="userSpaceOnUse">
<stop stop-color="#FFC24F"/>
<stop offset="0.2954" stop-color="#FF3183"/>
<stop offset="0.65" stop-color="#8559F3"/>
<stop offset="0.7235" stop-color="#657BEA"/>
<stop offset="0.8514" stop-color="#34B0DC"/>
<stop offset="0.9475" stop-color="#15D1D3"/>
<stop offset="1" stop-color="#09DDD0"/>
</linearGradient>
<linearGradient id="paint3_linear_5046_50132" x1="24.6618" y1="170.467" x2="154.312" y2="10.7005" gradientUnits="userSpaceOnUse">
<stop stop-color="#FFC24F"/>
<stop offset="0.2954" stop-color="#FF3183"/>
<stop offset="0.65" stop-color="#8559F3"/>
<stop offset="0.7235" stop-color="#657BEA"/>
<stop offset="0.8514" stop-color="#34B0DC"/>
<stop offset="0.9475" stop-color="#15D1D3"/>
<stop offset="1" stop-color="#09DDD0"/>
</linearGradient>
</defs>
</svg>
