<svg width="93" height="115" viewBox="0 0 93 115" fill="none" xmlns="http://www.w3.org/2000/svg">
<mask id="mask0_5603_51033" style="mask-type:alpha" maskUnits="userSpaceOnUse" x="1" y="1" width="91" height="113">
<path d="M68.6089 51.5468C68.6089 60.851 76.1519 68.3958 85.454 68.3958C88.5568 68.3958 91.07 70.9097 91.07 74.01V90.8589H74.225C71.1222 90.8589 68.6089 93.3728 68.6089 96.4763C68.6089 105.78 61.069 113.325 51.7638 113.325C42.4586 113.325 34.9187 105.78 34.9187 96.4763C34.9187 93.3728 32.4054 90.8589 29.3058 90.8589H1.22852V23.4631C1.22852 11.0555 11.2849 1 23.6897 1H91.07V29.0805C91.07 32.1809 88.5568 34.6979 85.454 34.6979C76.1519 34.6979 68.6089 42.2395 68.6089 51.5468Z" fill="black"/>
</mask>
<g mask="url(#mask0_5603_51033)">
<rect x="0.0703125" y="-0.158203" width="181" height="181" fill="url(#paint0_linear_5603_51033)"/>
</g>
<path d="M68.6089 51.5468C68.6089 60.851 76.1519 68.3958 85.454 68.3958C88.5568 68.3958 91.07 70.9097 91.07 74.01V90.8589H74.225C71.1222 90.8589 68.6089 93.3728 68.6089 96.4763C68.6089 105.78 61.069 113.325 51.7638 113.325C42.4586 113.325 34.9187 105.78 34.9187 96.4763C34.9187 93.3728 32.4054 90.8589 29.3058 90.8589H1.22852V23.4631C1.22852 11.0555 11.2849 1 23.6897 1H91.07V29.0805C91.07 32.1809 88.5568 34.6979 85.454 34.6979C76.1519 34.6979 68.6089 42.2395 68.6089 51.5468Z" stroke="#FBFAFC" stroke-width="2" stroke-linecap="round" stroke-linejoin="round"/>
<defs>
<linearGradient id="paint0_linear_5603_51033" x1="20.81" y1="169.529" x2="149.748" y2="10.6408" gradientUnits="userSpaceOnUse">
<stop stop-color="#FFC24F"/>
<stop offset="0.2954" stop-color="#FF3183"/>
<stop offset="0.65" stop-color="#8559F3"/>
<stop offset="0.7235" stop-color="#657BEA"/>
<stop offset="0.8514" stop-color="#34B0DC"/>
<stop offset="0.9475" stop-color="#15D1D3"/>
<stop offset="1" stop-color="#09DDD0"/>
</linearGradient>
</defs>
</svg>
