<svg width="115" height="93" viewBox="0 0 115 93" fill="none" xmlns="http://www.w3.org/2000/svg">
<mask id="mask0_5603_51062" style="mask-type:alpha" maskUnits="userSpaceOnUse" x="1" y="1" width="113" height="91">
<path d="M62.7643 68.721C53.4622 68.721 45.9192 76.2658 45.9192 85.5699C45.9192 88.6734 43.4059 91.1873 40.3063 91.1873H23.4612V74.3384C23.4612 71.2348 20.9479 68.721 17.8451 68.721C8.54305 68.721 1 61.1794 1 51.872C1 42.5647 8.54305 35.0231 17.8451 35.0231C20.9479 35.0231 23.4612 32.5092 23.4612 29.4089V1.3252H90.8415C103.246 1.3252 113.3 11.3838 113.3 23.7915V91.1873H85.2254C82.1258 91.1873 79.6094 88.6734 79.6094 85.5699C79.6094 76.2658 72.0695 68.721 62.7643 68.721Z" fill="black"/>
</mask>
<g mask="url(#mask0_5603_51062)">
<rect x="-67.542" y="0.166992" width="182" height="182" fill="url(#paint0_linear_5603_51062)"/>
</g>
<path d="M62.7643 68.721C53.4622 68.721 45.9192 76.2658 45.9192 85.5699C45.9192 88.6734 43.4059 91.1873 40.3063 91.1873H23.4612V74.3384C23.4612 71.2349 20.9479 68.721 17.8451 68.721C8.54305 68.721 1 61.1794 1 51.872C1 42.5647 8.54305 35.0231 17.8451 35.0231C20.9479 35.0231 23.4612 32.5092 23.4612 29.4089V1.3252H90.8415C103.246 1.3252 113.3 11.3838 113.3 23.7915V91.1873H85.2254C82.1258 91.1873 79.6094 88.6734 79.6094 85.5699C79.6094 76.2658 72.0695 68.721 62.7643 68.721V68.721Z" stroke="#FBFAFC" stroke-width="2" stroke-linecap="round" stroke-linejoin="round"/>
<defs>
<linearGradient id="paint0_linear_5603_51062" x1="-46.6878" y1="170.792" x2="82.9622" y2="11.0257" gradientUnits="userSpaceOnUse">
<stop stop-color="#FFC24F"/>
<stop offset="0.2954" stop-color="#FF3183"/>
<stop offset="0.65" stop-color="#8559F3"/>
<stop offset="0.7235" stop-color="#657BEA"/>
<stop offset="0.8514" stop-color="#34B0DC"/>
<stop offset="0.9475" stop-color="#15D1D3"/>
<stop offset="1" stop-color="#09DDD0"/>
</linearGradient>
</defs>
</svg>
