<svg width="93" height="115" viewBox="0 0 93 115" fill="none" xmlns="http://www.w3.org/2000/svg">
<mask id="mask0_5603_51120" style="mask-type:alpha" maskUnits="userSpaceOnUse" x="1" y="1" width="91" height="113">
<path d="M23.6897 62.8282C23.6897 53.524 16.1466 45.9793 6.8446 45.9793C3.74181 45.9793 1.22852 43.4654 1.22852 40.3651V23.5161H18.0736C21.1764 23.5161 23.6897 21.0023 23.6897 17.8988C23.6897 8.59458 31.2296 1.0498 40.5348 1.0498C49.84 1.0498 57.3799 8.59458 57.3799 17.8988C57.3799 21.0023 59.8932 23.5161 62.9928 23.5161H91.07V90.9119C91.07 103.32 81.0137 113.375 68.6089 113.375H1.22852V85.2945C1.22852 82.1942 3.74181 79.6772 6.8446 79.6772C16.1466 79.6772 23.6897 72.1356 23.6897 62.8282Z" fill="black"/>
</mask>
<g mask="url(#mask0_5603_51120)">
<rect x="-89.7715" y="-67.4668" width="182" height="182" fill="url(#paint0_linear_5603_51120)"/>
</g>
<path d="M23.6897 62.8282C23.6897 53.524 16.1466 45.9793 6.8446 45.9793C3.74181 45.9793 1.22852 43.4654 1.22852 40.3651V23.5161H18.0736C21.1764 23.5161 23.6897 21.0023 23.6897 17.8988C23.6897 8.59458 31.2296 1.0498 40.5348 1.0498C49.84 1.0498 57.3799 8.59458 57.3799 17.8988C57.3799 21.0023 59.8932 23.5161 62.9928 23.5161H91.07V90.9119C91.07 103.32 81.0137 113.375 68.6089 113.375H1.22852V85.2945C1.22852 82.1942 3.74181 79.6772 6.8446 79.6772C16.1466 79.6772 23.6897 72.1356 23.6897 62.8282V62.8282Z" stroke="#FBFAFC" stroke-width="2" stroke-linecap="round" stroke-linejoin="round"/>
<defs>
<linearGradient id="paint0_linear_5603_51120" x1="-68.9173" y1="103.158" x2="60.7327" y2="-56.6081" gradientUnits="userSpaceOnUse">
<stop stop-color="#FFC24F"/>
<stop offset="0.2954" stop-color="#FF3183"/>
<stop offset="0.65" stop-color="#8559F3"/>
<stop offset="0.7235" stop-color="#657BEA"/>
<stop offset="0.8514" stop-color="#34B0DC"/>
<stop offset="0.9475" stop-color="#15D1D3"/>
<stop offset="1" stop-color="#09DDD0"/>
</linearGradient>
</defs>
</svg>
