<svg width="46" height="46" fill="none" xmlns="http://www.w3.org/2000/svg"><path d="m23.242 24.94 1.887 8.712h-3.773l1.886-8.713Z" fill="url(#a)"/><path d="m23.242 20.584-1.886-8.712h3.772l-1.886 8.712Z" fill="url(#b)"/><path d="m21.064 22.762-8.712 1.886v-3.772l8.712 1.886Z" fill="url(#c)"/><path d="m25.42 22.761 8.712-1.886v3.773L25.42 22.76Z" fill="url(#d)"/><path d="M21.618 25.573 15.96 40.52l-4.457-2.574 10.115-12.372Z" fill="url(#e)"/><path d="m24.866 19.948 5.658-14.945 4.457 2.573-10.115 12.372Z" fill="url(#f)"/><path opacity=".8" d="M20.434 21.128 5.488 15.47l2.574-4.457 12.372 10.114Z" fill="url(#g)"/><path opacity=".8" d="m26.05 24.394 14.946 5.657-2.573 4.457L26.05 24.393Z" fill="url(#h)"/><defs><linearGradient id="a" x1="23.242" y1="24.939" x2="23.242" y2="36.556" gradientUnits="userSpaceOnUse"><stop stop-color="#B0ECFF"/><stop offset="1" stop-color="#B7BDF8"/></linearGradient><linearGradient id="b" x1="23.242" y1="20.584" x2="23.242" y2="8.968" gradientUnits="userSpaceOnUse"><stop stop-color="#B0ECFF"/><stop offset="1" stop-color="#B7BDF8"/></linearGradient><linearGradient id="c" x1="21.064" y1="22.762" x2="9.448" y2="22.762" gradientUnits="userSpaceOnUse"><stop stop-color="#B0ECFF"/><stop offset="1" stop-color="#B7BDF8"/></linearGradient><linearGradient id="d" x1="25.42" y1="22.761" x2="37.036" y2="22.761" gradientUnits="userSpaceOnUse"><stop stop-color="#B0ECFF"/><stop offset="1" stop-color="#B7BDF8"/></linearGradient><linearGradient id="e" x1="21.618" y1="25.573" x2="11.104" y2="43.786" gradientUnits="userSpaceOnUse"><stop stop-color="#A7D5FF"/><stop offset="1" stop-color="#ACFFEB"/></linearGradient><linearGradient id="f" x1="24.866" y1="19.948" x2="35.38" y2="1.736" gradientUnits="userSpaceOnUse"><stop stop-color="#A7D5FF"/><stop offset="1" stop-color="#ACFFEB"/></linearGradient><linearGradient id="g" x1="3.708" y1="8.041" x2="1.145" y2="20.103" gradientUnits="userSpaceOnUse"><stop stop-color="#FF6E6D"/><stop offset=".054" stop-color="#FF3183"/><stop offset=".875" stop-color="#598BF3"/><stop offset=".938" stop-color="#657BEA"/><stop offset="1" stop-color="#34B0DC"/></linearGradient><linearGradient id="h" x1="42.777" y1="37.481" x2="45.34" y2="25.419" gradientUnits="userSpaceOnUse"><stop stop-color="#FF6E6D"/><stop offset=".054" stop-color="#FF3183"/><stop offset=".875" stop-color="#598BF3"/><stop offset=".938" stop-color="#657BEA"/><stop offset="1" stop-color="#34B0DC"/></linearGradient></defs></svg>