<svg width="42" height="42" viewBox="0 0 42 42" fill="none" xmlns="http://www.w3.org/2000/svg">
<rect width="42" height="42" rx="21" fill="#E0E1E2"/>
<path fill-rule="evenodd" clip-rule="evenodd" d="M17.2712 12.4583C17.2712 13.1435 16.999 13.8006 16.5145 14.285C16.03 14.7695 15.373 15.0417 14.6878 15.0417C14.0027 15.0417 13.3456 14.7695 12.8611 14.285C12.3767 13.8006 12.1045 13.1435 12.1045 12.4583C12.1045 11.7732 12.3767 11.1161 12.8611 10.6316C13.3456 10.1472 14.0027 9.875 14.6878 9.875C15.373 9.875 16.03 10.1472 16.5145 10.6316C16.999 11.1161 17.2712 11.7732 17.2712 12.4583ZM14.6878 24.0833C15.373 24.0833 16.03 23.8112 16.5145 23.3267C16.999 22.8422 17.2712 22.1851 17.2712 21.5C17.2712 20.8149 16.999 20.1578 16.5145 19.6733C16.03 19.1888 15.373 18.9167 14.6878 18.9167C14.0027 18.9167 13.3456 19.1888 12.8611 19.6733C12.3767 20.1578 12.1045 20.8149 12.1045 21.5C12.1045 22.1851 12.3767 22.8422 12.8611 23.3267C13.3456 23.8112 14.0027 24.0833 14.6878 24.0833ZM14.6878 33.125C15.373 33.125 16.03 32.8528 16.5145 32.3684C16.999 31.8839 17.2712 31.2268 17.2712 30.5417C17.2712 29.8565 16.999 29.1994 16.5145 28.715C16.03 28.2305 15.373 27.9583 14.6878 27.9583C14.0027 27.9583 13.3456 28.2305 12.8611 28.715C12.3767 29.1994 12.1045 29.8565 12.1045 30.5417C12.1045 31.2268 12.3767 31.8839 12.8611 32.3684C13.3456 32.8528 14.0027 33.125 14.6878 33.125ZM28.8962 12.4583C28.8962 13.1435 28.624 13.8006 28.1395 14.285C27.655 14.7695 26.998 15.0417 26.3128 15.0417C25.6277 15.0417 24.9706 14.7695 24.4861 14.285C24.0017 13.8006 23.7295 13.1435 23.7295 12.4583C23.7295 11.7732 24.0017 11.1161 24.4861 10.6316C24.9706 10.1472 25.6277 9.875 26.3128 9.875C26.998 9.875 27.655 10.1472 28.1395 10.6316C28.624 11.1161 28.8962 11.7732 28.8962 12.4583ZM26.3128 24.0833C26.998 24.0833 27.655 23.8112 28.1395 23.3267C28.624 22.8422 28.8962 22.1851 28.8962 21.5C28.8962 20.8149 28.624 20.1578 28.1395 19.6733C27.655 19.1888 26.998 18.9167 26.3128 18.9167C25.6277 18.9167 24.9706 19.1888 24.4861 19.6733C24.0017 20.1578 23.7295 20.8149 23.7295 21.5C23.7295 22.1851 24.0017 22.8422 24.4861 23.3267C24.9706 23.8112 25.6277 24.0833 26.3128 24.0833ZM26.3128 33.125C26.998 33.125 27.655 32.8528 28.1395 32.3684C28.624 31.8839 28.8962 31.2268 28.8962 30.5417C28.8962 29.8565 28.624 29.1994 28.1395 28.715C27.655 28.2305 26.998 27.9583 26.3128 27.9583C25.6277 27.9583 24.9706 28.2305 24.4861 28.715C24.0017 29.1994 23.7295 29.8565 23.7295 30.5417C23.7295 31.2268 24.0017 31.8839 24.4861 32.3684C24.9706 32.8528 25.6277 33.125 26.3128 33.125Z" fill="url(#paint0_linear_541_6037)"/>
<defs>
<linearGradient id="paint0_linear_541_6037" x1="12.1045" y1="33.125" x2="33.7868" y2="15.1163" gradientUnits="userSpaceOnUse">
<stop stop-color="#FF6E6D"/>
<stop offset="0.0539493" stop-color="#FF3183"/>
<stop offset="0.874705" stop-color="#598BF3"/>
<stop offset="0.938372" stop-color="#657BEA"/>
<stop offset="1" stop-color="#34B0DC"/>
</linearGradient>
</defs>
</svg>
