<svg width="455" height="455" viewBox="0 0 455 455" fill="none" xmlns="http://www.w3.org/2000/svg">
<g clip-path="url(#clip0_427_3070)">
<path d="M455 227.489C455.004 272.021 441.939 315.576 417.424 352.754C392.909 389.931 358.023 419.097 317.09 436.635C276.156 454.173 230.976 459.313 187.149 451.417C143.322 443.521 102.776 422.936 70.5372 392.215C38.2984 361.494 15.7843 321.987 5.78597 278.591C-4.21238 235.196 -1.25536 189.82 14.2904 148.089C29.8363 106.358 57.2872 70.1073 93.2405 43.8299C129.194 17.5525 172.068 2.4043 216.549 0.263067C220.145 0.10961 223.806 0 227.51 0C231.215 0 234.789 -2.32458e-06 238.472 0.263067C296.84 3.07874 351.887 28.2478 392.2 70.5525C432.513 112.857 455 169.053 455 227.489Z" fill="url(#paint0_linear_427_3070)"/>
<path d="M227.489 451.47C351.191 451.47 451.471 351.191 451.471 227.489C451.471 103.787 351.191 3.50757 227.489 3.50757C103.788 3.50757 3.50781 103.787 3.50781 227.489C3.50781 351.191 103.788 451.47 227.489 451.47Z" fill="url(#paint1_linear_427_3070)"/>
<path d="M227.489 420.604C334.143 420.604 420.603 334.143 420.603 227.489C420.603 120.835 334.143 34.3745 227.489 34.3745C120.834 34.3745 34.374 120.835 34.374 227.489C34.374 334.143 120.834 420.604 227.489 420.604Z" fill="url(#paint2_linear_427_3070)"/>
<path d="M37.9639 227.545C37.9639 194.231 46.744 161.505 63.4197 132.666C80.0954 103.826 104.078 79.8904 132.95 63.271L227.509 227.545L37.9639 227.545Z" fill="url(#paint3_linear_427_3070)"/>
<path d="M132.736 391.695C103.886 375.038 79.9346 351.072 63.2965 322.21C46.6583 293.349 37.9207 260.612 37.964 227.298L227.509 227.545L132.736 391.695Z" fill="url(#paint4_linear_427_3070)"/>
<path d="M322.281 391.695C293.43 408.352 260.699 417.111 227.385 417.089C194.072 417.068 161.352 408.266 132.523 391.572L227.509 227.545L322.281 391.695Z" fill="url(#paint5_linear_427_3070)"/>
<path d="M417.053 227.545C417.053 260.859 408.273 293.584 391.598 322.424C374.922 351.263 350.94 375.199 322.068 391.818L227.509 227.545H417.053Z" fill="url(#paint6_linear_427_3070)"/>
<path d="M322.281 63.3942C351.132 80.0511 375.083 104.018 391.721 132.879C408.359 161.74 417.096 194.477 417.053 227.791L227.509 227.545L322.281 63.3942Z" fill="url(#paint7_linear_427_3070)"/>
<path d="M132 63.7231C161.224 46.8504 194.379 37.9781 228.125 38C261.87 38.022 294.298 47.0894 323.5 64L228 230L132 63.7231Z" fill="url(#paint8_linear_427_3070)"/>
<g filter="url(#filter0_d_427_3070)">
<path d="M245.956 245.934C256.153 235.738 256.153 219.206 245.956 209.009C235.76 198.813 219.228 198.813 209.032 209.009C198.835 219.206 198.835 235.738 209.032 245.934C219.228 256.13 235.76 256.13 245.956 245.934Z" fill="url(#paint9_linear_427_3070)"/>
<path d="M245.368 242.641C253.719 232.769 252.486 217.996 242.614 209.644C232.742 201.293 217.969 202.525 209.618 212.398C201.266 222.27 202.499 237.043 212.371 245.394C222.243 253.745 237.016 252.513 245.368 242.641Z" fill="url(#paint10_linear_427_3070)"/>
</g>
<path d="M223.015 164.273L223.205 158.236L237.198 158.677L237.096 161.915L225.702 161.556L225.614 164.355L223.015 164.273ZM228.69 151.173C228.821 147.035 230.732 145.455 233.21 145.533C235.689 145.611 237.791 147.498 237.665 151.496C237.604 153.435 237 155.457 235.997 156.786L233.559 155.429C234.392 154.394 234.898 152.95 234.944 151.49C234.995 149.871 234.346 148.85 233.207 148.814C232.108 148.78 231.365 149.477 231.285 152.015L231.173 155.594L223.319 154.626L223.588 146.09L226.187 146.172L226.003 152.009L228.655 152.313L228.69 151.173ZM231.309 141.111C231.244 143.15 229.7 144.543 227.341 144.468C224.982 144.394 223.528 142.907 223.592 140.868C223.657 138.829 225.181 137.457 227.559 137.532C229.938 137.607 231.373 139.072 231.309 141.111ZM237.707 142.534L224.015 132.538L224.09 130.159L237.782 140.155L237.707 142.534ZM229.669 141.06C229.697 140.18 228.996 139.578 227.496 139.531C225.997 139.483 225.259 140.04 225.232 140.92C225.204 141.78 225.925 142.403 227.404 142.449C228.884 142.496 229.642 141.919 229.669 141.06ZM238.204 131.824C238.141 133.843 236.596 135.235 234.237 135.161C231.879 135.086 230.425 133.6 230.488 131.581C230.552 129.542 232.097 128.15 234.456 128.224C236.815 128.298 238.269 129.785 238.204 131.824ZM236.565 131.772C236.593 130.893 235.872 130.29 234.392 130.243C232.913 130.197 232.155 130.753 232.127 131.633C232.1 132.492 232.801 133.114 234.3 133.162C235.8 133.209 236.538 132.632 236.565 131.772ZM238.855 113.712C238.716 118.13 235.535 121.272 231.377 121.141C227.219 121.01 224.243 117.674 224.382 113.256C224.521 108.859 227.682 105.697 231.86 105.828C236.038 105.96 238.993 109.315 238.855 113.712ZM236.096 113.625C236.175 111.127 234.415 109.19 231.756 109.107C229.098 109.023 227.219 110.845 227.141 113.343C227.062 115.842 228.822 117.778 231.481 117.862C234.139 117.946 236.018 116.124 236.096 113.625ZM227.872 92.6811L227.64 100.017L231.339 100.134L231.543 93.6572L234.141 93.7391L233.937 100.216L239.035 100.376L238.933 103.615L224.94 103.174L225.273 92.5993L227.872 92.6811ZM228.274 79.914L228.043 87.2504L231.741 87.3669L231.945 80.8901L234.544 80.9719L234.34 87.4487L239.437 87.6093L239.335 90.8477L225.342 90.4069L225.675 79.8322L228.274 79.914Z" fill="#FE4100"/>
<path d="M223.046 163.274L223.237 157.237L237.23 157.677L237.128 160.916L225.733 160.557L225.645 163.355L223.046 163.274ZM228.722 150.174C228.852 146.036 230.763 144.455 233.242 144.533C235.72 144.611 237.822 146.498 237.696 150.496C237.635 152.435 237.031 154.457 236.029 155.787L233.59 154.429C234.423 153.395 234.929 151.95 234.975 150.491C235.026 148.872 234.378 147.851 233.238 147.815C232.139 147.78 231.396 148.477 231.316 151.016L231.204 154.594L223.35 153.626L223.619 145.091L226.218 145.172L226.034 151.01L228.686 151.313L228.722 150.174ZM231.34 140.112C231.276 142.151 229.731 143.543 227.372 143.469C225.013 143.394 223.559 141.908 223.624 139.869C223.688 137.83 225.212 136.457 227.591 136.532C229.969 136.607 231.404 138.073 231.34 140.112ZM237.738 141.534L224.046 131.538L224.121 129.159L237.813 139.155L237.738 141.534ZM229.701 140.06C229.728 139.181 229.027 138.578 227.528 138.531C226.028 138.484 225.291 139.041 225.263 139.921C225.236 140.78 225.956 141.403 227.436 141.45C228.915 141.496 229.674 140.92 229.701 140.06ZM238.236 130.824C238.172 132.843 236.627 134.236 234.269 134.161C231.91 134.087 230.456 132.6 230.519 130.581C230.584 128.542 232.128 127.15 234.487 127.225C236.846 127.299 238.3 128.785 238.236 130.824ZM236.596 130.773C236.624 129.893 235.903 129.29 234.423 129.244C232.944 129.197 232.186 129.753 232.159 130.633C232.132 131.493 232.832 132.115 234.332 132.162C235.831 132.209 236.569 131.632 236.596 130.773ZM238.886 112.713C238.747 117.131 235.567 120.272 231.409 120.141C227.251 120.01 224.274 116.675 224.413 112.257C224.552 107.859 227.713 104.697 231.891 104.829C236.069 104.96 239.025 108.315 238.886 112.713ZM236.128 112.626C236.206 110.127 234.446 108.191 231.788 108.107C229.129 108.023 227.251 109.845 227.172 112.344C227.093 114.843 228.853 116.779 231.512 116.863C234.171 116.946 236.049 115.125 236.128 112.626ZM227.903 91.6816L227.672 99.018L231.37 99.1345L231.574 92.6577L234.173 92.7395L233.969 99.2163L239.066 99.3769L238.964 102.615L224.971 102.175L225.304 91.5998L227.903 91.6816ZM228.305 78.9145L228.074 86.2509L231.772 86.3674L231.976 79.8906L234.575 79.9724L234.371 86.4492L239.468 86.6098L239.366 89.8482L225.373 89.4074L225.706 78.8327L228.305 78.9145Z" fill="white"/>
<path d="M286.185 202.153L291.579 199.48L292.751 201.846L283.271 206.543L282.338 204.662L284.912 197.694C285.5 196.087 285.377 195.344 285.075 194.734C284.587 193.749 283.622 193.513 282.295 194.17C281.22 194.703 280.511 195.568 280.319 196.712L277.529 196.398C277.795 194.503 279.099 192.719 281.356 191.6C284.152 190.214 286.726 190.724 287.854 193C288.458 194.219 288.668 195.499 287.72 198L286.185 202.153ZM299.396 198.82C296.314 200.348 292.857 199.137 290.806 194.997C288.754 190.858 289.885 187.374 292.967 185.846C296.067 184.31 299.506 185.53 301.558 189.669C303.609 193.809 302.497 197.284 299.396 198.82ZM298.18 196.365C299.631 195.646 300.049 193.966 298.637 191.117C297.225 188.267 295.635 187.582 294.184 188.301C292.75 189.012 292.332 190.692 293.744 193.541C295.156 196.39 296.746 197.076 298.18 196.365ZM306.12 188.033C304.292 188.939 302.336 188.234 301.288 186.12C300.24 184.005 300.864 182.022 302.692 181.116C304.52 180.21 306.45 180.906 307.506 183.038C308.563 185.171 307.948 187.127 306.12 188.033ZM307.886 194.345L310.236 177.556L312.368 176.499L310.019 193.289L307.886 194.345ZM305.392 186.564C306.18 186.173 306.38 185.27 305.714 183.926C305.048 182.582 304.209 182.195 303.42 182.585C302.65 182.967 302.441 183.897 303.098 185.223C303.755 186.549 304.621 186.946 305.392 186.564ZM317.563 189.729C315.753 190.626 313.796 189.921 312.749 187.806C311.701 185.692 312.325 183.708 314.135 182.812C315.963 181.906 317.919 182.61 318.967 184.725C320.015 186.84 319.391 188.823 317.563 189.729ZM316.834 188.259C317.623 187.869 317.814 186.948 317.157 185.622C316.5 184.296 315.652 183.89 314.863 184.281C314.092 184.663 313.875 185.574 314.541 186.918C315.207 188.262 316.064 188.641 316.834 188.259ZM333.837 181.753C329.876 183.716 325.606 182.395 323.759 178.667C321.911 174.94 323.447 170.742 327.407 168.779C331.35 166.825 335.63 168.12 337.486 171.865C339.342 175.61 337.779 179.8 333.837 181.753ZM332.611 179.28C334.851 178.17 335.728 175.705 334.547 173.321C333.366 170.938 330.873 170.142 328.633 171.252C326.393 172.362 325.516 174.828 326.698 177.211C327.879 179.594 330.371 180.39 332.611 179.28ZM347.194 162.144L340.617 165.403L342.26 168.718L348.066 165.841L349.22 168.17L343.414 171.048L345.679 175.617L342.776 177.056L336.559 164.512L346.039 159.814L347.194 162.144ZM358.639 156.472L352.062 159.731L353.705 163.046L359.511 160.169L360.666 162.499L354.859 165.376L357.124 169.946L354.221 171.384L348.004 158.84L357.484 154.142L358.639 156.472Z" fill="#FE4100"/>
<path d="M287.016 200.93L292.41 198.257L293.582 200.622L284.102 205.32L283.17 203.439L285.744 196.471C286.331 194.863 286.208 194.12 285.906 193.511C285.418 192.526 284.453 192.29 283.126 192.947C282.051 193.48 281.342 194.345 281.15 195.489L278.36 195.175C278.626 193.28 279.93 191.495 282.188 190.376C284.983 188.991 287.557 189.501 288.685 191.777C289.289 192.996 289.499 194.275 288.551 196.776L287.016 200.93ZM300.227 197.597C297.145 199.125 293.688 197.914 291.637 193.774C289.585 189.635 290.716 186.15 293.798 184.623C296.898 183.087 300.337 184.306 302.389 188.446C304.44 192.585 303.328 196.061 300.227 197.597ZM299.011 195.142C300.462 194.423 300.88 192.743 299.468 189.893C298.056 187.044 296.466 186.359 295.015 187.078C293.581 187.788 293.164 189.468 294.575 192.318C295.987 195.167 297.577 195.852 299.011 195.142ZM306.951 186.81C305.123 187.716 303.167 187.011 302.119 184.897C301.071 182.782 301.695 180.799 303.523 179.893C305.351 178.987 307.281 179.683 308.337 181.815C309.394 183.948 308.779 185.904 306.951 186.81ZM308.717 193.122L311.067 176.333L313.2 175.276L310.85 192.065L308.717 193.122ZM306.223 185.341C307.011 184.95 307.211 184.047 306.545 182.703C305.879 181.359 305.04 180.971 304.251 181.362C303.481 181.744 303.272 182.674 303.929 184C304.586 185.326 305.452 185.722 306.223 185.341ZM318.394 188.506C316.584 189.402 314.627 188.698 313.58 186.583C312.532 184.469 313.156 182.485 314.966 181.588C316.794 180.682 318.75 181.387 319.798 183.502C320.846 185.616 320.222 187.6 318.394 188.506ZM317.666 187.036C318.454 186.645 318.645 185.725 317.988 184.399C317.331 183.073 316.483 182.667 315.694 183.058C314.924 183.44 314.706 184.351 315.372 185.695C316.038 187.039 316.895 187.418 317.666 187.036ZM334.668 180.53C330.707 182.493 326.437 181.172 324.59 177.444C322.743 173.717 324.278 169.518 328.238 167.556C332.181 165.602 336.461 166.896 338.317 170.642C340.173 174.387 338.61 178.576 334.668 180.53ZM333.442 178.057C335.682 176.947 336.559 174.482 335.378 172.098C334.197 169.715 331.704 168.919 329.464 170.029C327.224 171.139 326.348 173.604 327.529 175.988C328.71 178.371 331.202 179.167 333.442 178.057ZM348.025 160.92L341.448 164.18L343.091 167.495L348.897 164.618L350.051 166.947L344.245 169.824L346.51 174.394L343.607 175.833L337.39 163.288L346.87 158.591L348.025 160.92ZM359.47 155.249L352.893 158.508L354.536 161.823L360.342 158.946L361.497 161.275L355.69 164.153L357.955 168.722L355.052 170.161L348.836 157.617L358.315 152.919L359.47 155.249Z" fill="white"/>
<path d="M295.068 264.626C298.551 266.863 298.926 269.314 297.587 271.401C296.247 273.488 293.548 274.322 290.182 272.161C288.55 271.113 287.125 269.556 286.499 268.014L288.916 266.618C289.376 267.864 290.356 269.04 291.584 269.829C292.948 270.704 294.157 270.672 294.772 269.713C295.367 268.787 295.15 267.792 293.012 266.42L290 264.486L294.863 258.244L302.049 262.858L300.645 265.046L295.73 261.891L294.108 264.01L295.068 264.626ZM302.357 272.039C300.64 270.937 300.239 268.897 301.514 266.911C302.789 264.925 304.811 264.441 306.528 265.543C308.245 266.645 308.64 268.658 307.354 270.661C306.068 272.663 304.074 273.142 302.357 272.039ZM297.851 276.799L313.459 270.184L315.462 271.469L299.854 278.085L297.851 276.799ZM303.243 270.659C303.984 271.135 304.861 270.842 305.671 269.58C306.481 268.318 306.382 267.399 305.642 266.923C304.918 266.458 304.013 266.757 303.214 268.002C302.414 269.248 302.519 270.195 303.243 270.659ZM306.785 282.726C305.086 281.634 304.684 279.594 305.959 277.608C307.234 275.622 309.256 275.138 310.956 276.229C312.673 277.332 313.074 279.372 311.799 281.358C310.524 283.344 308.502 283.828 306.785 282.726ZM307.671 281.346C308.412 281.821 309.3 281.512 310.099 280.266C310.899 279.021 310.811 278.085 310.07 277.609C309.347 277.145 308.453 277.427 307.642 278.689C306.832 279.951 306.948 280.881 307.671 281.346ZM321.993 292.584C318.273 290.196 317.211 285.854 319.458 282.354C321.706 278.853 326.096 278.012 329.816 280.4C333.518 282.777 334.608 287.113 332.35 290.63C330.092 294.148 325.695 294.962 321.993 292.584ZM323.484 290.262C325.588 291.613 328.153 291.097 329.59 288.858C331.027 286.62 330.428 284.073 328.325 282.722C326.221 281.371 323.656 281.887 322.218 284.126C320.781 286.364 321.38 288.911 323.484 290.262ZM345.679 293.959L339.503 289.994L337.504 293.107L342.957 296.608L341.552 298.796L336.099 295.295L333.344 299.587L330.617 297.836L338.181 286.056L347.084 291.772L345.679 293.959ZM356.428 300.861L350.251 296.895L348.253 300.008L353.705 303.509L352.301 305.697L346.848 302.196L344.092 306.488L341.366 304.738L348.93 292.957L357.833 298.673L356.428 300.861Z" fill="#FE4100"/>
<path d="M295.909 265.166C299.393 267.403 299.768 269.854 298.428 271.941C297.089 274.028 294.39 274.862 291.024 272.701C289.392 271.653 287.967 270.097 287.341 268.554L289.758 267.159C290.218 268.405 291.198 269.58 292.426 270.369C293.789 271.244 294.998 271.213 295.614 270.253C296.209 269.328 295.992 268.333 293.854 266.96L290.842 265.026L295.705 258.784L302.891 263.398L301.487 265.586L296.572 262.431L294.95 264.55L295.909 265.166ZM303.199 272.58C301.482 271.478 301.081 269.437 302.356 267.451C303.631 265.465 305.653 264.981 307.37 266.083C309.086 267.185 309.482 269.198 308.196 271.201C306.91 273.204 304.915 273.682 303.199 272.58ZM298.693 277.34L314.301 270.724L316.304 272.01L300.696 278.626L298.693 277.34ZM304.085 271.2C304.825 271.675 305.702 271.383 306.513 270.12C307.323 268.858 307.224 267.939 306.484 267.463C305.76 266.999 304.855 267.297 304.056 268.543C303.256 269.788 303.361 270.735 304.085 271.2ZM307.627 283.266C305.927 282.175 305.526 280.134 306.801 278.149C308.076 276.163 310.098 275.678 311.798 276.77C313.515 277.872 313.916 279.912 312.641 281.898C311.366 283.884 309.344 284.368 307.627 283.266ZM308.513 281.886C309.254 282.361 310.142 282.052 310.941 280.807C311.741 279.561 311.653 278.625 310.912 278.15C310.188 277.685 309.294 277.967 308.484 279.229C307.674 280.491 307.79 281.421 308.513 281.886ZM322.834 293.125C319.115 290.737 318.053 286.394 320.3 282.894C322.548 279.393 326.938 278.552 330.658 280.94C334.36 283.317 335.45 287.653 333.192 291.171C330.934 294.688 326.537 295.502 322.834 293.125ZM324.326 290.802C326.429 292.153 328.995 291.637 330.432 289.399C331.869 287.16 331.27 284.613 329.166 283.262C327.063 281.912 324.497 282.428 323.06 284.666C321.623 286.904 322.222 289.452 324.326 290.802ZM346.521 294.5L340.345 290.534L338.346 293.648L343.798 297.149L342.394 299.337L336.941 295.836L334.185 300.127L331.459 298.377L339.023 286.596L347.926 292.312L346.521 294.5ZM357.27 301.401L351.093 297.435L349.094 300.549L354.547 304.05L353.142 306.238L347.69 302.737L344.934 307.028L342.208 305.278L349.772 293.497L358.675 299.213L357.27 301.401Z" fill="white"/>
<path d="M225.748 370.261C226.173 367.745 227.745 366.481 229.805 366.501C232.165 366.525 234.307 368.367 234.267 372.346C234.247 374.306 233.687 376.321 232.714 377.671L230.246 376.386C231.057 375.334 231.532 373.859 231.546 372.399C231.563 370.779 230.913 369.773 229.773 369.761C228.713 369.751 228.045 370.524 228.027 372.364L228.012 373.844L225.872 373.822L222.641 370.91L222.581 376.87L219.981 376.844L220.079 367.044L222.179 367.065L225.748 370.261ZM234.4 359.051C234.366 362.491 231.72 365.025 227.101 364.978C222.481 364.932 219.887 362.346 219.921 358.906C219.956 355.446 222.601 352.933 227.221 352.979C231.84 353.025 234.435 355.591 234.4 359.051ZM231.66 359.024C231.677 357.404 230.368 356.271 227.188 356.239C224.008 356.207 222.677 357.314 222.661 358.934C222.645 360.534 223.954 361.667 227.133 361.699C230.313 361.73 231.644 360.624 231.66 359.024ZM227.829 348.171C227.808 350.211 226.294 351.635 223.934 351.612C221.574 351.588 220.089 350.133 220.109 348.093C220.13 346.053 221.624 344.648 224.004 344.672C226.384 344.696 227.849 346.131 227.829 348.171ZM234.256 349.455L220.353 339.755L220.377 337.375L234.28 347.075L234.256 349.455ZM226.189 348.154C226.198 347.274 225.484 346.687 223.984 346.672C222.484 346.657 221.758 347.23 221.749 348.11C221.741 348.97 222.475 349.577 223.954 349.592C225.434 349.607 226.18 349.014 226.189 348.154ZM234.524 338.737C234.503 340.757 232.989 342.182 230.629 342.158C228.269 342.135 226.784 340.68 226.804 338.66C226.825 336.62 228.339 335.195 230.699 335.219C233.059 335.242 234.544 336.697 234.524 338.737ZM232.884 338.721C232.893 337.841 232.158 337.253 230.678 337.239C229.199 337.224 228.453 337.796 228.444 338.676C228.435 339.536 229.149 340.143 230.649 340.158C232.149 340.173 232.875 339.581 232.884 338.721ZM234.785 320.616C234.741 325.036 231.629 328.245 227.469 328.203C223.309 328.161 220.262 324.891 220.306 320.471C220.35 316.071 223.442 312.842 227.622 312.884C231.802 312.926 234.829 316.216 234.785 320.616ZM232.025 320.588C232.05 318.088 230.249 316.19 227.589 316.163C224.93 316.137 223.091 317.999 223.066 320.498C223.041 322.998 224.842 324.896 227.502 324.923C230.162 324.95 232 323.088 232.025 320.588ZM223.353 299.825L223.279 307.165L226.979 307.202L227.044 300.722L229.644 300.748L229.579 307.228L234.679 307.279L234.646 310.519L220.647 310.379L220.753 299.799L223.353 299.825ZM223.481 287.052L223.407 294.392L227.107 294.429L227.172 287.949L229.772 287.975L229.707 294.455L234.807 294.506L234.774 297.746L220.775 297.606L220.881 287.026L223.481 287.052Z" fill="#FE4100"/>
<path d="M225.757 369.261C226.183 366.745 227.755 365.481 229.815 365.502C232.175 365.525 234.317 367.367 234.277 371.347C234.257 373.306 233.697 375.321 232.723 376.671L230.256 375.386C231.067 374.335 231.542 372.859 231.556 371.399C231.572 369.779 230.922 368.773 229.783 368.761C228.723 368.751 228.055 369.524 228.036 371.364L228.022 372.844L225.882 372.823L222.651 369.91L222.591 375.87L219.991 375.844L220.089 366.044L222.189 366.065L225.757 369.261ZM234.41 358.051C234.376 361.491 231.73 364.025 227.11 363.978C222.491 363.932 219.896 361.346 219.931 357.906C219.965 354.446 222.611 351.933 227.23 351.979C231.85 352.025 234.445 354.591 234.41 358.051ZM231.67 358.024C231.686 356.404 230.378 355.271 227.198 355.239C224.018 355.207 222.687 356.314 222.671 357.934C222.655 359.534 223.963 360.667 227.143 360.699C230.323 360.73 231.654 359.624 231.67 358.024ZM227.839 347.171C227.818 349.211 226.304 350.635 223.944 350.612C221.584 350.588 220.099 349.133 220.119 347.093C220.139 345.053 221.634 343.648 224.013 343.672C226.393 343.696 227.859 345.131 227.839 347.171ZM234.266 348.455L220.363 338.755L220.386 336.376L234.29 346.075L234.266 348.455ZM226.199 347.154C226.208 346.274 225.493 345.687 223.993 345.672C222.494 345.657 221.768 346.23 221.759 347.11C221.75 347.97 222.484 348.577 223.964 348.592C225.444 348.607 226.19 348.014 226.199 347.154ZM234.533 337.737C234.513 339.757 232.999 341.182 230.639 341.158C228.279 341.135 226.794 339.68 226.814 337.66C226.834 335.62 228.349 334.195 230.708 334.219C233.068 334.242 234.554 335.697 234.533 337.737ZM232.894 337.721C232.902 336.841 232.168 336.253 230.688 336.239C229.208 336.224 228.463 336.796 228.454 337.676C228.445 338.536 229.159 339.144 230.659 339.159C232.159 339.174 232.885 338.581 232.894 337.721ZM234.795 319.616C234.751 324.036 231.638 327.245 227.479 327.203C223.319 327.161 220.271 323.891 220.316 319.471C220.36 315.071 223.452 311.842 227.632 311.884C231.812 311.926 234.839 315.216 234.795 319.616ZM232.035 319.588C232.06 317.088 230.259 315.19 227.599 315.164C224.939 315.137 223.101 316.999 223.076 319.498C223.05 321.998 224.852 323.896 227.511 323.923C230.171 323.95 232.01 322.088 232.035 319.588ZM223.363 298.825L223.289 306.165L226.989 306.202L227.054 299.722L229.654 299.748L229.589 306.228L234.689 306.279L234.656 309.519L220.657 309.379L220.763 298.799L223.363 298.825ZM223.491 286.053L223.417 293.392L227.117 293.429L227.182 286.95L229.782 286.976L229.717 293.455L234.816 293.506L234.784 296.746L220.785 296.606L220.891 286.026L223.491 286.053Z" fill="white"/>
<path d="M94.2329 302.649L99.2884 299.344L106.949 311.062L104.237 312.835L97.9992 303.293L95.6556 304.825L94.2329 302.649ZM114.138 306.649C111.259 308.531 107.682 307.739 105.154 303.872C102.626 300.005 103.335 296.411 106.215 294.529C109.111 292.636 112.67 293.439 115.198 297.306C117.726 301.173 117.034 304.755 114.138 306.649ZM112.639 304.355C113.995 303.469 114.21 301.751 112.47 299.09C110.73 296.428 109.07 295.936 107.714 296.822C106.375 297.698 106.16 299.416 107.9 302.077C109.64 304.739 111.3 305.231 112.639 304.355ZM119.534 295.14C117.827 296.256 115.801 295.789 114.509 293.814C113.218 291.838 113.602 289.795 115.31 288.678C117.017 287.562 119.016 288.024 120.318 290.016C121.621 292.008 121.242 294.024 119.534 295.14ZM122.037 301.198L122.378 284.249L124.37 282.946L124.029 299.896L122.037 301.198ZM118.637 293.767C119.373 293.286 119.465 292.366 118.644 291.11C117.823 289.855 116.944 289.57 116.207 290.051C115.488 290.522 115.39 291.469 116.2 292.708C117.01 293.947 117.917 294.238 118.637 293.767ZM131.097 295.466C129.407 296.571 127.381 296.104 126.089 294.128C124.798 292.153 125.182 290.11 126.873 289.004C128.58 287.888 130.607 288.355 131.898 290.331C133.189 292.306 132.805 294.35 131.097 295.466ZM130.2 294.093C130.937 293.612 131.017 292.675 130.207 291.436C129.397 290.197 128.507 289.895 127.77 290.377C127.051 290.847 126.942 291.778 127.763 293.034C128.584 294.289 129.48 294.564 130.2 294.093ZM146.31 285.616C142.611 288.034 138.213 287.229 135.937 283.747C133.661 280.266 134.687 275.915 138.387 273.496C142.07 271.088 146.473 271.866 148.76 275.364C151.047 278.863 149.993 283.208 146.31 285.616ZM144.8 283.306C146.892 281.938 147.47 279.386 146.015 277.159C144.559 274.933 141.99 274.438 139.897 275.806C137.805 277.174 137.227 279.726 138.682 281.953C140.138 284.179 142.707 284.674 144.8 283.306ZM157.246 264.56L151.102 268.576L153.127 271.673L158.551 268.127L159.973 270.303L154.55 273.849L157.34 278.118L154.628 279.891L146.968 268.173L155.823 262.384L157.246 264.56ZM167.937 257.57L161.794 261.587L163.818 264.683L169.242 261.138L170.665 263.314L165.241 266.86L168.032 271.128L165.32 272.901L157.659 261.183L166.514 255.394L167.937 257.57Z" fill="#FE4100"/>
<path d="M95.0698 302.102L100.125 298.797L107.786 310.515L105.074 312.288L98.8361 302.746L96.4925 304.278L95.0698 302.102ZM114.975 306.102C112.096 307.984 108.519 307.192 105.991 303.325C103.463 299.458 104.172 295.864 107.052 293.982C109.948 292.089 113.507 292.892 116.035 296.759C118.563 300.625 117.871 304.208 114.975 306.102ZM113.476 303.808C114.832 302.922 115.047 301.204 113.307 298.542C111.567 295.881 109.907 295.389 108.551 296.275C107.212 297.151 106.997 298.868 108.737 301.53C110.477 304.192 112.137 304.684 113.476 303.808ZM120.371 294.593C118.664 295.709 116.638 295.242 115.346 293.266C114.055 291.291 114.439 289.248 116.147 288.131C117.854 287.015 119.853 287.477 121.155 289.469C122.457 291.461 122.079 293.477 120.371 294.593ZM122.874 300.651L123.215 283.701L125.207 282.399L124.866 299.348L122.874 300.651ZM119.474 293.22C120.21 292.739 120.302 291.819 119.481 290.563C118.66 289.308 117.781 289.022 117.044 289.504C116.324 289.975 116.227 290.922 117.037 292.161C117.847 293.4 118.754 293.691 119.474 293.22ZM131.934 294.919C130.244 296.024 128.217 295.556 126.926 293.581C125.635 291.606 126.019 289.562 127.71 288.457C129.417 287.341 131.443 287.808 132.735 289.784C134.026 291.759 133.642 293.802 131.934 294.919ZM131.037 293.546C131.773 293.064 131.854 292.128 131.044 290.889C130.234 289.65 129.344 289.348 128.607 289.83C127.887 290.3 127.779 291.231 128.6 292.487C129.421 293.742 130.317 294.017 131.037 293.546ZM147.147 285.069C143.448 287.487 139.05 286.682 136.774 283.2C134.498 279.718 135.524 275.367 139.224 272.949C142.906 270.541 147.31 271.319 149.597 274.817C151.884 278.316 150.83 282.661 147.147 285.069ZM145.637 282.759C147.729 281.39 148.307 278.838 146.851 276.612C145.396 274.386 142.826 273.891 140.734 275.259C138.641 276.627 138.064 279.179 139.519 281.405C140.975 283.632 143.544 284.127 145.637 282.759ZM158.083 264.013L151.939 268.029L153.964 271.126L159.388 267.58L160.81 269.756L155.386 273.302L158.177 277.571L155.465 279.344L147.805 267.626L156.66 261.836L158.083 264.013ZM168.774 257.023L162.63 261.039L164.655 264.136L170.079 260.59L171.502 262.767L166.078 266.312L168.869 270.581L166.157 272.354L158.496 260.636L167.351 254.847L168.774 257.023Z" fill="white"/>
<path d="M93.0069 167.657L98.5654 169.969L97.5517 172.406L87.7827 168.344L88.5891 166.405L95.5334 163.769C97.1314 163.156 97.611 162.576 97.8721 161.948C98.2945 160.932 97.8385 160.049 96.4719 159.481C95.3639 159.02 94.2455 159.053 93.2567 159.66L91.6612 157.35C93.2651 156.306 95.4665 156.117 97.7934 157.085C100.674 158.283 101.98 160.559 101.005 162.904C100.483 164.16 99.6559 165.159 97.1473 166.087L93.0069 167.657ZM104.198 175.43C101.022 174.109 99.6639 170.707 101.438 166.441C103.212 162.175 106.582 160.739 109.758 162.06C112.953 163.389 114.292 166.783 112.518 171.049C110.744 175.315 107.393 176.759 104.198 175.43ZM105.25 172.9C106.746 173.522 108.287 172.733 109.508 169.797C110.729 166.861 110.202 165.212 108.706 164.59C107.228 163.976 105.687 164.764 104.466 167.701C103.245 170.637 103.773 172.286 105.25 172.9ZM116.748 173.415C114.865 172.631 114.111 170.693 115.017 168.514C115.923 166.335 117.829 165.503 119.712 166.286C121.596 167.07 122.339 168.981 121.425 171.179C120.511 173.377 118.632 174.198 116.748 173.415ZM113.149 178.892L127.352 169.636L129.549 170.55L115.346 179.806L113.149 178.892ZM117.378 171.9C118.19 172.238 119.002 171.796 119.578 170.411C120.154 169.026 119.895 168.139 119.083 167.801C118.289 167.47 117.45 167.923 116.882 169.29C116.314 170.656 116.584 171.57 117.378 171.9ZM122.986 183.156C121.121 182.381 120.367 180.443 121.273 178.264C122.179 176.085 124.085 175.253 125.95 176.028C127.834 176.811 128.587 178.749 127.681 180.928C126.775 183.108 124.869 183.94 122.986 183.156ZM123.615 181.642C124.428 181.98 125.248 181.519 125.816 180.153C126.384 178.786 126.133 177.88 125.32 177.542C124.526 177.212 123.696 177.647 123.12 179.032C122.544 180.417 122.821 181.312 123.615 181.642ZM139.689 190.189C135.608 188.492 133.799 184.404 135.396 180.563C136.993 176.722 141.168 175.122 145.249 176.819C149.311 178.509 151.147 182.586 149.542 186.445C147.937 190.305 143.752 191.879 139.689 190.189ZM140.749 187.641C143.057 188.601 145.492 187.642 146.513 185.186C147.534 182.73 146.497 180.327 144.189 179.367C141.881 178.408 139.446 179.366 138.425 181.822C137.403 184.278 138.44 186.681 140.749 187.641ZM163.248 187.38L156.471 184.562L155.05 187.978L161.034 190.466L160.035 192.867L154.052 190.379L152.094 195.088L149.102 193.844L154.478 180.917L164.247 184.979L163.248 187.38ZM175.043 192.285L168.265 189.466L166.845 192.883L172.828 195.371L171.83 197.771L165.846 195.283L163.888 199.992L160.896 198.748L166.272 185.822L176.041 189.884L175.043 192.285Z" fill="#FE4100"/>
<path d="M93.9307 168.041L99.4892 170.353L98.4755 172.79L88.7065 168.728L89.5129 166.789L96.4572 164.153C98.0553 163.54 98.5349 162.959 98.796 162.332C99.2183 161.316 98.7623 160.433 97.3958 159.865C96.2878 159.404 95.1693 159.437 94.1805 160.044L92.5851 157.734C94.189 156.69 96.3904 156.501 98.7172 157.469C101.598 158.667 102.904 160.943 101.929 163.288C101.407 164.544 100.58 165.543 98.0711 166.471L93.9307 168.041ZM105.122 175.814C101.945 174.493 100.588 171.091 102.362 166.825C104.136 162.559 107.505 161.123 110.682 162.444C113.876 163.773 115.216 167.167 113.442 171.433C111.668 175.699 108.317 177.143 105.122 175.814ZM106.174 173.284C107.67 173.906 109.211 173.117 110.432 170.181C111.653 167.245 111.125 165.596 109.63 164.974C108.152 164.36 106.611 165.148 105.39 168.085C104.169 171.021 104.697 172.67 106.174 173.284ZM117.672 173.799C115.788 173.015 115.035 171.077 115.941 168.898C116.847 166.719 118.753 165.887 120.636 166.67C122.52 167.454 123.263 169.365 122.349 171.563C121.435 173.761 119.556 174.582 117.672 173.799ZM114.073 179.276L128.275 170.02L130.473 170.934L116.27 180.19L114.073 179.276ZM118.302 172.284C119.114 172.622 119.926 172.18 120.502 170.795C121.078 169.41 120.819 168.522 120.007 168.185C119.212 167.854 118.374 168.307 117.806 169.674C117.238 171.04 117.508 171.954 118.302 172.284ZM123.909 183.54C122.044 182.765 121.291 180.827 122.197 178.648C123.103 176.469 125.009 175.636 126.874 176.412C128.757 177.195 129.511 179.133 128.605 181.312C127.699 183.492 125.793 184.324 123.909 183.54ZM124.539 182.026C125.352 182.364 126.171 181.903 126.74 180.537C127.308 179.17 127.057 178.264 126.244 177.926C125.45 177.596 124.62 178.031 124.044 179.416C123.468 180.801 123.745 181.696 124.539 182.026ZM140.613 190.573C136.531 188.876 134.722 184.788 136.32 180.947C137.917 177.106 142.091 175.506 146.173 177.203C150.235 178.892 152.07 182.97 150.465 186.829C148.86 190.689 144.675 192.263 140.613 190.573ZM141.672 188.025C143.981 188.985 146.415 188.026 147.437 185.57C148.458 183.114 147.421 180.711 145.113 179.751C142.804 178.791 140.37 179.75 139.348 182.206C138.327 184.662 139.364 187.065 141.672 188.025ZM164.172 187.764L157.395 184.946L155.974 188.362L161.957 190.85L160.959 193.251L154.976 190.763L153.018 195.472L150.026 194.228L155.402 181.301L165.171 185.363L164.172 187.764ZM175.967 192.669L169.189 189.85L167.768 193.267L173.752 195.755L172.753 198.155L166.77 195.667L164.812 200.376L161.82 199.132L167.196 186.205L176.965 190.268L175.967 192.669Z" fill="white"/>
<path d="M213.409 233.168C211.855 233.168 210.287 232.706 209.419 232.034L210.189 230.326C211.015 230.928 212.247 231.348 213.423 231.348C214.767 231.348 215.313 230.9 215.313 230.298C215.313 228.464 209.615 229.724 209.615 226.084C209.615 224.418 210.959 223.032 213.745 223.032C214.977 223.032 216.237 223.326 217.147 223.9L216.447 225.622C215.537 225.104 214.599 224.852 213.731 224.852C212.387 224.852 211.869 225.356 211.869 225.972C211.869 227.778 217.567 226.532 217.567 230.13C217.567 231.768 216.209 233.168 213.409 233.168ZM223.359 223.2C225.977 223.2 227.615 224.558 227.615 226.756C227.615 228.94 225.977 230.298 223.359 230.298H221.385V233H219.117V223.2H223.359ZM223.233 228.45C224.619 228.45 225.319 227.82 225.319 226.756C225.319 225.678 224.619 225.048 223.233 225.048H221.385V228.45H223.233ZM229.234 233V223.2H231.502V233H229.234ZM240.576 223.2H242.816V233H240.954L236.068 227.05V233H233.828V223.2H235.704L240.576 229.15V223.2Z" fill="#FE4100"/>
<path d="M214.409 233.168C212.855 233.168 211.287 232.706 210.419 232.034L211.189 230.326C212.015 230.928 213.247 231.348 214.423 231.348C215.767 231.348 216.313 230.9 216.313 230.298C216.313 228.464 210.615 229.724 210.615 226.084C210.615 224.418 211.959 223.032 214.745 223.032C215.977 223.032 217.237 223.326 218.147 223.9L217.447 225.622C216.537 225.104 215.599 224.852 214.731 224.852C213.387 224.852 212.869 225.356 212.869 225.972C212.869 227.778 218.567 226.532 218.567 230.13C218.567 231.768 217.209 233.168 214.409 233.168ZM224.359 223.2C226.977 223.2 228.615 224.558 228.615 226.756C228.615 228.94 226.977 230.298 224.359 230.298H222.385V233H220.117V223.2H224.359ZM224.233 228.45C225.619 228.45 226.319 227.82 226.319 226.756C226.319 225.678 225.619 225.048 224.233 225.048H222.385V228.45H224.233ZM230.234 233V223.2H232.502V233H230.234ZM241.576 223.2H243.816V233H241.954L237.068 227.05V233H234.828V223.2H236.704L241.576 229.15V223.2Z" fill="white"/>
<path style="mix-blend-mode:multiply" d="M228.476 416.951C333.12 416.951 417.951 332.12 417.951 227.476C417.951 122.831 333.12 38 228.476 38C123.831 38 39 122.831 39 227.476C39 332.12 123.831 416.951 228.476 416.951Z" fill="url(#paint11_radial_427_3070)"/>
<path d="M238.471 0.263067V52.1973L227.51 59.4536L216.549 52.1973V0.263067C220.144 0.10961 223.805 0 227.51 0C231.215 0 234.788 0.0876874 238.471 0.263067Z" fill="url(#paint12_linear_427_3070)"/>
</g>
<defs>
<filter id="filter0_d_427_3070" x="186.385" y="196.362" width="72.2188" height="72.2192" filterUnits="userSpaceOnUse" color-interpolation-filters="sRGB">
<feFlood flood-opacity="0" result="BackgroundImageFix"/>
<feColorMatrix in="SourceAlpha" type="matrix" values="0 0 0 0 0 0 0 0 0 0 0 0 0 0 0 0 0 0 127 0" result="hardAlpha"/>
<feOffset dx="-5" dy="5"/>
<feGaussianBlur stdDeviation="5"/>
<feComposite in2="hardAlpha" operator="out"/>
<feColorMatrix type="matrix" values="0 0 0 0 0 0 0 0 0 0 0 0 0 0 0 0 0 0 0.6 0"/>
<feBlend mode="normal" in2="BackgroundImageFix" result="effect1_dropShadow_427_3070"/>
<feBlend mode="normal" in="SourceGraphic" in2="effect1_dropShadow_427_3070" result="shape"/>
</filter>
<linearGradient id="paint0_linear_427_3070" x1="334" y1="31" x2="101.13" y2="411.656" gradientUnits="userSpaceOnUse">
<stop stop-color="#FFC24F"/>
<stop offset="0.2954" stop-color="#FF3183"/>
<stop offset="0.65" stop-color="#8559F3"/>
<stop offset="0.7235" stop-color="#657BEA"/>
<stop offset="0.8514" stop-color="#34B0DC"/>
<stop offset="0.9475" stop-color="#15D1D3"/>
<stop offset="1" stop-color="#09DDD0"/>
</linearGradient>
<linearGradient id="paint1_linear_427_3070" x1="379.828" y1="75.172" x2="58.0289" y2="396.949" gradientUnits="userSpaceOnUse">
<stop stop-color="#000604"/>
<stop offset="0.4" stop-color="#303030"/>
<stop offset="1" stop-color="#000604"/>
</linearGradient>
<linearGradient id="paint2_linear_427_3070" x1="227.489" y1="34.3745" x2="227.489" y2="420.604" gradientUnits="userSpaceOnUse">
<stop stop-color="#FF9161"/>
<stop offset="1" stop-color="#F4AB22"/>
</linearGradient>
<linearGradient id="paint3_linear_427_3070" x1="65.4626" y1="136.21" x2="221.616" y2="227.545" gradientUnits="userSpaceOnUse">
<stop stop-color="#E16A6A"/>
<stop offset="1" stop-color="#FF7664"/>
</linearGradient>
<linearGradient id="paint4_linear_427_3070" x1="65.4626" y1="329.683" x2="227.509" y2="227.545" gradientUnits="userSpaceOnUse">
<stop stop-color="#4484CB"/>
<stop offset="1" stop-color="#69B1FF"/>
</linearGradient>
<linearGradient id="paint5_linear_427_3070" x1="225.5" y1="417" x2="228" y2="231.5" gradientUnits="userSpaceOnUse">
<stop stop-color="#02C0B5"/>
<stop offset="1" stop-color="#63FFF5"/>
</linearGradient>
<linearGradient id="paint6_linear_427_3070" x1="392.01" y1="321.826" x2="231.5" y2="228" gradientUnits="userSpaceOnUse">
<stop stop-color="#743DFF"/>
<stop offset="0.9999" stop-color="#A264FF"/>
<stop offset="1" stop-color="#8559F3"/>
<stop offset="1" stop-color="#8F62FF"/>
</linearGradient>
<linearGradient id="paint7_linear_427_3070" x1="390.537" y1="127.371" x2="245" y2="219" gradientUnits="userSpaceOnUse">
<stop stop-color="#D80056"/>
<stop offset="1" stop-color="#FF5C9D"/>
</linearGradient>
<linearGradient id="paint8_linear_427_3070" x1="228" y1="34.5" x2="228" y2="220" gradientUnits="userSpaceOnUse">
<stop stop-color="#FF9161"/>
<stop offset="1" stop-color="#F4AB22"/>
</linearGradient>
<linearGradient id="paint9_linear_427_3070" x1="229.417" y1="257.858" x2="223.307" y2="199.14" gradientUnits="userSpaceOnUse">
<stop stop-color="#FFC24F"/>
<stop offset="0.2954" stop-color="#FF3183"/>
<stop offset="0.65" stop-color="#8559F3"/>
<stop offset="0.7235" stop-color="#657BEA"/>
<stop offset="0.8514" stop-color="#34B0DC"/>
<stop offset="0.9475" stop-color="#15D1D3"/>
<stop offset="1" stop-color="#09DDD0"/>
</linearGradient>
<linearGradient id="paint10_linear_427_3070" x1="246.928" y1="208.099" x2="199.707" y2="255.32" gradientUnits="userSpaceOnUse">
<stop offset="0.28" stop-color="#303030"/>
<stop offset="1" stop-color="#000604"/>
</linearGradient>
<radialGradient id="paint11_radial_427_3070" cx="0" cy="0" r="1" gradientUnits="userSpaceOnUse" gradientTransform="translate(228.476 227.476) scale(189.476)">
<stop offset="0.81" stop-color="white"/>
<stop offset="0.87" stop-color="#FCFDFD"/>
<stop offset="0.91" stop-color="#F3F5F7"/>
<stop offset="0.94" stop-color="#E9ECF0"/>
<stop offset="0.97" stop-color="#B9C4CF"/>
<stop offset="1" stop-color="#899BAD"/>
</radialGradient>
<linearGradient id="paint12_linear_427_3070" x1="227.51" y1="0" x2="227.51" y2="59.4536" gradientUnits="userSpaceOnUse">
<stop stop-color="#FF9161"/>
<stop offset="0.484375" stop-color="#F4AB22"/>
<stop offset="1" stop-color="#FEDC32"/>
</linearGradient>
<clipPath id="clip0_427_3070">
<rect width="455" height="455" fill="white"/>
</clipPath>
</defs>
</svg>
