<svg xmlns="http://www.w3.org/2000/svg" width="196" height="155" fill="none"><g filter="url(#a)"><mask id="c" fill="#fff"><path fill-rule="evenodd" d="M.5 24c0-13.255 10.745-24 24-24h139c13.255 0 24 10.745 24 24v39.016c0 .902-.617 1.67-1.425 2.07-3.217 1.586-5.477 5.322-5.477 9.679 0 4.356 2.26 8.092 5.477 9.679.808.399 1.425 1.167 1.425 2.069v35.738c0 13.255-10.745 24-24 24h-139c-13.255 0-24-10.745-24-24V86.306c0-.862.565-1.606 1.321-2.019 3.056-1.667 5.174-5.304 5.174-9.522 0-4.219-2.118-7.856-5.174-9.523C1.065 64.83.5 64.085.5 63.223V24Z" clip-rule="evenodd"/></mask><path fill="#FBFAFC" fill-rule="evenodd" d="M.5 24c0-13.255 10.745-24 24-24h139c13.255 0 24 10.745 24 24v39.016c0 .902-.617 1.67-1.425 2.07-3.217 1.586-5.477 5.322-5.477 9.679 0 4.356 2.26 8.092 5.477 9.679.808.399 1.425 1.167 1.425 2.069v35.738c0 13.255-10.745 24-24 24h-139c-13.255 0-24-10.745-24-24V86.306c0-.862.565-1.606 1.321-2.019 3.056-1.667 5.174-5.304 5.174-9.522 0-4.219-2.118-7.856-5.174-9.523C1.065 64.83.5 64.085.5 63.223V24Z" clip-rule="evenodd"/><path fill="url(#b)" d="m1.821 65.242.958-1.756-.958 1.756Zm184.254 19.202-.885 1.793.885-1.793Zm0-19.359.884 1.794-.884-1.794ZM24.5-2c-14.36 0-26 11.64-26 26h4c0-12.15 9.85-22 22-22v-4Zm139 0h-139v4h139v-4Zm26 26c0-14.36-11.641-26-26-26v4c12.15 0 22 9.85 22 22h4Zm0 39.016V24h-4v39.016h4Zm-6.902 11.749c0-3.702 1.918-6.68 4.361-7.886l-1.769-3.587c-3.991 1.968-6.592 6.462-6.592 11.473h4Zm4.361 7.885c-2.443-1.205-4.361-4.184-4.361-7.885h-4c0 5.01 2.601 9.504 6.592 11.472l1.769-3.587Zm2.541 39.601V86.513h-4v35.738h4Zm-26 26c14.359 0 26-11.641 26-26h-4c0 12.15-9.85 22-22 22v4Zm-139 0h139v-4h-139v4Zm-26-26c0 14.359 11.64 26 26 26v-4c-12.15 0-22-9.85-22-22h-4Zm0-35.945v35.945h4V86.306h-4Zm6.495-11.541c0 3.58-1.797 6.493-4.132 7.766l1.916 3.512c3.776-2.06 6.216-6.422 6.216-11.278h-4ZM.863 66.998c2.335 1.273 4.132 4.186 4.132 7.767h4c0-4.857-2.44-9.218-6.216-11.279L.863 66.998ZM-1.5 24v39.223h4V24h-4Zm4.279 39.486a.728.728 0 0 1-.25-.212c-.038-.055-.029-.07-.029-.05h-4c0 1.778 1.145 3.11 2.363 3.774l1.916-3.512ZM2.5 86.306c0 .019-.009.004.029-.05a.729.729 0 0 1 .25-.213L.863 82.53c-1.218.665-2.363 1.996-2.363 3.775h4Zm182.69-.069c.137.068.23.155.277.221.043.06.033.075.033.055h4c0-1.864-1.25-3.226-2.541-3.863l-1.769 3.587Zm.31-23.22c0-.021.01-.005-.033.054a.752.752 0 0 1-.277.22l1.769 3.588c1.291-.637 2.541-2 2.541-3.863h-4Z" mask="url(#c)"/></g><defs><linearGradient id="b" x1=".5" x2="149.249" y1="146.251" y2="-60.276" gradientUnits="userSpaceOnUse"><stop stop-color="#FFC24F"/><stop offset=".295" stop-color="#FF3183"/><stop offset=".65" stop-color="#8559F3"/><stop offset=".724" stop-color="#657BEA"/><stop offset=".851" stop-color="#34B0DC"/><stop offset=".948" stop-color="#15D1D3"/><stop offset="1" stop-color="#09DDD0"/></linearGradient><filter id="a" width="219" height="178.251" x="-15.5" y="-16" color-interpolation-filters="sRGB" filterUnits="userSpaceOnUse"><feFlood flood-opacity="0" result="BackgroundImageFix"/><feGaussianBlur in="BackgroundImageFix" stdDeviation="8"/><feComposite in2="SourceAlpha" operator="in" result="effect1_backgroundBlur_5066_50949"/><feColorMatrix in="SourceAlpha" result="hardAlpha" values="0 0 0 0 0 0 0 0 0 0 0 0 0 0 0 0 0 0 127 0"/><feOffset dx="4" dy="4"/><feGaussianBlur stdDeviation="2"/><feComposite in2="hardAlpha" operator="out"/><feColorMatrix values="0 0 0 0 1 0 0 0 0 1 0 0 0 0 1 0 0 0 0.25 0"/><feBlend in2="effect1_backgroundBlur_5066_50949" result="effect2_dropShadow_5066_50949"/><feBlend in="SourceGraphic" in2="effect2_dropShadow_5066_50949" result="shape"/></filter></defs></svg>