<svg width="19" height="18" viewBox="0 0 19 18" fill="none" xmlns="http://www.w3.org/2000/svg">
<path d="M5 9.99993V1.99993C5 1.73472 4.89464 1.48036 4.70711 1.29283C4.51957 1.10529 4.26522 0.999932 4 0.999932H2C1.73478 0.999932 1.48043 1.10529 1.29289 1.29283C1.10536 1.48036 1 1.73472 1 1.99993V8.99993C1 9.26515 1.10536 9.5195 1.29289 9.70704C1.48043 9.89458 1.73478 9.99993 2 9.99993H5C6.06087 9.99993 7.07828 10.4214 7.82843 11.1715C8.57857 11.9217 9 12.9391 9 13.9999V14.9999C9 15.5304 9.21071 16.0391 9.58579 16.4141C9.96086 16.7892 10.4696 16.9999 11 16.9999C11.5304 16.9999 12.0391 16.7892 12.4142 16.4141C12.7893 16.0391 13 15.5304 13 14.9999V9.99993H16C16.5304 9.99993 17.0391 9.78922 17.4142 9.41415C17.7893 9.03907 18 8.53037 18 7.99993L17 2.99993C16.8562 2.38646 16.5834 1.85969 16.2227 1.49897C15.8619 1.13825 15.4328 0.963109 15 0.999932H8C7.20435 0.999932 6.44129 1.316 5.87868 1.87861C5.31607 2.44122 5 3.20428 5 3.99993" fill="url(#paint0_linear_5718_1788)"/>
<path d="M5 9.99993V1.99993C5 1.73472 4.89464 1.48036 4.70711 1.29283C4.51957 1.10529 4.26522 0.999932 4 0.999932H2C1.73478 0.999932 1.48043 1.10529 1.29289 1.29283C1.10536 1.48036 1 1.73472 1 1.99993V8.99993C1 9.26515 1.10536 9.5195 1.29289 9.70704C1.48043 9.89458 1.73478 9.99993 2 9.99993H5ZM5 9.99993C6.06087 9.99993 7.07828 10.4214 7.82843 11.1715C8.57857 11.9217 9 12.9391 9 13.9999V14.9999C9 15.5304 9.21071 16.0391 9.58579 16.4141C9.96086 16.7892 10.4696 16.9999 11 16.9999C11.5304 16.9999 12.0391 16.7892 12.4142 16.4141C12.7893 16.0391 13 15.5304 13 14.9999V9.99993H16C16.5304 9.99993 17.0391 9.78922 17.4142 9.41415C17.7893 9.03907 18 8.53037 18 7.99993L17 2.99993C16.8562 2.38646 16.5834 1.85969 16.2227 1.49897C15.8619 1.13825 15.4328 0.963109 15 0.999932H8C7.20435 0.999932 6.44129 1.316 5.87868 1.87861C5.31607 2.44122 5 3.20428 5 3.99993" stroke="white" stroke-width="1.5" stroke-linecap="round" stroke-linejoin="round"/>
<defs>
<linearGradient id="paint0_linear_5718_1788" x1="9.5" y1="0.995117" x2="9.5" y2="16.9999" gradientUnits="userSpaceOnUse">
<stop stop-color="#FF9161"/>
<stop offset="1" stop-color="#F4AB22"/>
</linearGradient>
</defs>
</svg>
