<svg width="20" height="24" viewBox="0 0 20 24" fill="none" xmlns="http://www.w3.org/2000/svg">
<path d="M11.3256 0.289339C7.9918 1.2779 5.9935 4.61906 6.78491 7.88417C7.13115 9.30047 7.93245 10.4934 9.00085 11.3536C9.07504 11.4154 9.00579 11.5295 8.91181 11.501C7.5961 11.0542 6.1221 10.9972 4.67779 11.4344C1.34893 12.442 -0.629591 15.7927 0.181602 19.0578C1.08183 22.6793 4.96962 24.8086 8.67439 23.7107C12.0082 22.7221 14.0065 19.381 13.2151 16.1111C12.8689 14.6948 12.0676 13.5019 10.9992 12.6416C10.925 12.5798 10.9942 12.4658 11.0882 12.4943C12.4039 12.941 13.8779 12.9981 15.3222 12.5608C18.6511 11.5533 20.6296 8.2026 19.8184 4.93749C18.9182 1.32068 15.0254 -0.808537 11.3256 0.289339Z" fill="url(#paint0_linear_5066_50959)"/>
<defs>
<linearGradient id="paint0_linear_5066_50959" x1="3.37964" y1="23.1539" x2="15.8411" y2="0.416061" gradientUnits="userSpaceOnUse">
<stop stop-color="#FFC352"/>
<stop offset="0.2954" stop-color="#FF3183"/>
<stop offset="0.65" stop-color="#8559F3"/>
<stop offset="0.7235" stop-color="#657BEA"/>
<stop offset="0.8514" stop-color="#34B0DC"/>
<stop offset="0.9475" stop-color="#15D1D3"/>
<stop offset="1" stop-color="#09DDD0"/>
</linearGradient>
</defs>
</svg>
